<?xml version="1.0" encoding="utf-8"?>
<!-- Generator: Adobe Illustrator 19.2.1, SVG Export Plug-In . SVG Version: 6.00 Build 0)  -->
<svg version="1.1" id="Calque_1" xmlns="http://www.w3.org/2000/svg" xmlns:xlink="http://www.w3.org/1999/xlink" x="0px" y="0px"
	 viewBox="0 0 2478 1158" style="enable-background:new 0 0 2478 1158;" xml:space="preserve">
<style type="text/css">
	.st0{opacity:0.46;fill:#FFF794;enable-background:new    ;}
	.st1{fill:#BEBCB0;}
	.st2{fill:#1A2530;}
	.st3{fill:none;stroke:#BABABA;stroke-miterlimit:10;}
	.st4{fill:#474C59;}
	
		.st5{opacity:0.5;fill:none;stroke:#EBEBEB;stroke-width:2;stroke-linecap:round;stroke-linejoin:round;stroke-miterlimit:10;enable-background:new    ;}
	.st6{fill:none;}
	.st7{fill:#F2F2F2;stroke:#AAAAAA;stroke-miterlimit:10;}
	.st8{fill:#FFFFFF;}
	
		.st9{opacity:0.46;fill:none;stroke:#FFFFFF;stroke-width:5;stroke-linecap:round;stroke-linejoin:round;stroke-miterlimit:10;enable-background:new    ;}
	.st10{fill:#FFFBAB;}
	.st11{fill:#E0D6D5;}
	.st12{fill:#FFFC34;}
	.st13{fill:#FFC0C9;}
	.st14{fill:#FF530D;}
	.st15{fill:#AEFFC9;}
	.st16{fill:#0BD152;}
	.st17{fill:#596361;}
	.st18{fill:#FFFFFF;stroke:#97EBFF;stroke-width:4;stroke-linecap:round;stroke-linejoin:round;stroke-miterlimit:10;}
	.st19{fill:#97EBFF;}
	.st20{fill:#FFFFFF;stroke:#273035;stroke-width:3;stroke-linecap:round;stroke-linejoin:round;stroke-miterlimit:10;}
	
		.st21{fill:#FFFFFF;stroke:#DDDDDD;stroke-width:3;stroke-linecap:round;stroke-linejoin:round;stroke-miterlimit:10;stroke-opacity:0.57;}
	.st22{fill:#FFFFFF;stroke:#273035;stroke-width:2;stroke-linecap:round;stroke-linejoin:round;stroke-miterlimit:10;}
	.st23{fill:none;stroke:#000000;stroke-width:7;stroke-linecap:round;stroke-linejoin:round;stroke-miterlimit:10;}
	.st24{fill:#D4F7FF;}
	.st25{fill:#FFCFD3;}
	.st26{fill:#CEFFCA;}
	.st27{fill:#082947;stroke:#0D0D0D;stroke-miterlimit:10;}
	.st28{fill:#FCF6F0;stroke:#505963;stroke-width:4;stroke-linecap:round;stroke-linejoin:round;stroke-miterlimit:10;}
	.st29{fill:#EFE5DF;}
	.st30{fill:none;stroke:#505963;stroke-width:5;stroke-linecap:round;stroke-linejoin:round;stroke-miterlimit:10;}
	.st31{fill:none;stroke:#505963;stroke-width:4;stroke-linecap:round;stroke-linejoin:round;stroke-miterlimit:10;}
	.st32{fill:#505963;}
	.st33{fill:none;stroke:#7C644E;stroke-width:5;stroke-linecap:round;stroke-linejoin:round;stroke-miterlimit:10;}
	.st34{fill:#A6998A;stroke:#505963;stroke-width:5;stroke-linecap:round;stroke-linejoin:round;stroke-miterlimit:10;}
	.st35{fill:#AB8D6E;stroke:#505963;stroke-width:4;stroke-linecap:round;stroke-linejoin:round;stroke-miterlimit:10;}
	.st36{fill:#EFE8E1;}
	.st37{fill:#ADA197;}
	.st38{fill:#9B8F83;}
	.st39{fill:#A6998A;stroke:#9B8F83;stroke-width:3;stroke-linecap:round;stroke-linejoin:round;stroke-miterlimit:10;}
	.st40{fill:none;stroke:#9B8F83;stroke-width:3;stroke-linecap:round;stroke-linejoin:round;stroke-miterlimit:10;}
	.st41{fill:#F6F6F6;}
	.st42{fill:#6A879B;}
	.st43{fill:#FCF6F0;}
	.st44{fill:none;stroke:#6A879B;stroke-width:4;stroke-linecap:round;stroke-linejoin:round;stroke-miterlimit:10;}
	.st45{fill:none;stroke:#505963;stroke-width:6;stroke-miterlimit:10;}
	.st46{fill:#6A879B;stroke:#505963;stroke-width:6;stroke-miterlimit:10;}
	.st47{fill:none;stroke:#BFBFBB;stroke-width:4;stroke-linecap:round;stroke-linejoin:round;stroke-miterlimit:10;}
	.st48{fill:none;stroke:#02030F;stroke-width:2;stroke-linecap:round;stroke-linejoin:round;stroke-miterlimit:10;}
	.st49{fill:#2B2F38;}
	.st50{fill:#02030F;}
	.st51{fill:#CECECE;}
	.st52{fill:#F48F7F;}
	.st53{fill:#7DD587;}
	.st54{fill:#40D0F2;}
	.st55{fill:#6A879B;stroke:#475C63;stroke-width:2;stroke-miterlimit:10;}
	.st56{fill:none;stroke:#5A7584;stroke-width:2;stroke-miterlimit:10;}
	.st57{fill:#6A879B;stroke:#475C63;stroke-width:6;stroke-linecap:round;stroke-linejoin:round;stroke-miterlimit:10;}
	.st58{fill:#FFE9E9;}
	.st59{fill:#DDDDDD;}
	.st60{fill:none;stroke:#DDDDDD;stroke-width:5;stroke-miterlimit:10;}
	.st61{fill:none;stroke:#505963;stroke-width:3;stroke-linecap:round;stroke-linejoin:round;stroke-miterlimit:10;}
	.st62{font-family:'Industry-Bold';}
	.st63{font-size:32.8802px;}
	.st64{fill:#BAFFB3;}
	.st65{fill:#F4F4F4;}
	.st66{opacity:0.47;fill:#FCA7B0;enable-background:new    ;}
	.st67{fill:none;stroke:#2B2F38;stroke-width:3;stroke-linecap:round;stroke-miterlimit:10;}
	.st68{opacity:0.64;fill:#AEFFC9;enable-background:new    ;}
	.st69{fill:#3D4954;}
	.st70{fill:none;stroke:#0D0D0D;stroke-linecap:round;stroke-linejoin:round;stroke-miterlimit:10;}
	
		.st71{opacity:0.31;fill:none;stroke:#FFFFFF;stroke-width:2;stroke-linecap:round;stroke-linejoin:round;stroke-miterlimit:10;enable-background:new    ;}
	
		.st72{opacity:0.3;fill:none;stroke:#FFFFFF;stroke-width:2;stroke-linecap:round;stroke-linejoin:round;stroke-miterlimit:10;enable-background:new    ;}
	.st73{fill:none;stroke:#505963;stroke-width:8;stroke-linecap:round;stroke-linejoin:round;stroke-miterlimit:10;}
</style>
<circle class="st0" cx="1905.5" cy="483.2" r="88.7"/>
<circle class="st0" cx="315.9" cy="864.4" r="70.1"/>
<g>
	
		<rect x="1554.9" y="665.5" transform="matrix(0.9798 -0.2001 0.2001 0.9798 -101.7642 326.1164)" class="st1" width="15" height="2"/>
	<g>
		<path class="st2" d="M1616.8,770.4l-60.8,12.4c-1.4,0.3-2.8-0.6-3.1-2l-22.7-111.2c-0.3-1.4,0.6-2.8,2-3.1l60.8-12.4
			c1.4-0.3,2.8,0.6,3.1,2l22.7,111.2C1619.2,768.7,1618.2,770.1,1616.8,770.4z"/>
		<path class="st3" d="M1593.7,771.1l-16.1,3.3c-1.1,0.2-2.1-0.5-2.3-1.5l-0.3-1.5c-0.2-1.1,0.5-2.1,1.5-2.3l16.1-3.3
			c1.1-0.2,2.1,0.5,2.3,1.5l0.3,1.5C1595.4,769.9,1594.8,770.9,1593.7,771.1z"/>
		
			<rect x="1543.8" y="671.6" transform="matrix(0.9798 -0.2001 0.2001 0.9798 -111.835 329.5083)" class="st4" width="60.7" height="92.8"/>
	</g>
</g>
<line class="st5" x1="1815.5" y1="1523.3" x2="1822.4" y2="1530.1"/>
<line class="st5" x1="1810.5" y1="1529.3" x2="1823.1" y2="1540.9"/>
<line class="st5" x1="1804" y1="1138.5" x2="1807.7" y2="1141.9"/>
<g>
	<line class="st6" x1="922.6" y1="401.7" x2="974.9" y2="496.1"/>
	<line class="st6" x1="713.3" y1="641" x2="661" y2="546.7"/>
	<path class="st7" d="M999.6,553.9c3.1-1.7,4.1-6,2.1-9.5l-71.9-129.9c-2.8-5.1-7.7-7.7-11-5.9L669,547c-3.3,1.8-3.7,7.4-0.9,12.4
		l70.8,127.8c2.6,4.6,8,6.6,12.1,4.3L999.6,553.9z"/>
	<g>
		<path class="st8" d="M842.6,543c-3.1-5.5,0-10.6,0.1-10.8c-4.6-2.3-8.9-0.6-10.3,0.1c-3.6,1.5-5.5,5.6-7.2,6.6
			c-1.7,0.9-5.4,0.5-8.2,2.1c-3.6,2.1-5.9,6.1-6,10.4c-0.1,8.8,8.1,17,14.8,20.3c3.3,1.6,7.1,3.4,9.9,1.7c2.7-1.6,2.8-3.9,6.1-5.7
			s5.2-0.6,8.1-2.2c2.9-1.7,3.3-5.4,3.7-9c0.4-4.2-0.4-7.6-0.4-7.8C853.2,548.5,846.3,549.5,842.6,543z M828.2,529.9
			c0.5-2.7,0.1-5.8-1.6-8.2c-2.1,1.3-4,4.1-4.6,6.8c-0.5,2.4-0.3,5.7,1.4,8C826,535.4,827.7,532.6,828.2,529.9z"/>
	</g>
	<line class="st9" x1="888" y1="435.4" x2="913" y2="421.6"/>
	<line class="st9" x1="862.8" y1="450.1" x2="877.2" y2="442.2"/>
</g>
<g>
	
		<rect x="952.4" y="638.8" transform="matrix(0.7136 -0.7005 0.7005 0.7136 -204.5481 868.7769)" class="st10" width="15.9" height="91.6"/>
	<polygon class="st11" points="1005.9,731 996.3,726.9 986.7,722.8 992.3,717.2 998,711.6 1002,721.3 	"/>
	<polygon class="st12" points="1006.2,731.4 1002.5,729.8 998.8,728.1 1000.9,726 1003.1,723.8 1004.7,727.6 	"/>
</g>
<g>
	
		<rect x="908.7" y="683.2" transform="matrix(0.6678 -0.7444 0.7444 0.6678 -197.3515 940.0993)" class="st13" width="91.6" height="15.9"/>
	<polygon class="st11" points="998,642.6 994.5,652.5 991,662.3 985,657 979.1,651.7 988.6,647.2 	"/>
	<polygon class="st14" points="998.3,642.3 996.9,646.1 995.6,649.9 993.3,647.9 991,645.8 994.6,644 	"/>
</g>
<g>
	<polygon class="st15" points="1480.4,816.6 1469.6,824.4 1423,762.3 1433.8,754.5 	"/>
	<polygon class="st11" points="1418.5,745.3 1426.1,749.9 1433.8,754.5 1428.4,758.4 1423,762.3 1420.8,753.8 	"/>
	<polygon class="st16" points="1418.3,745 1421.3,746.8 1424.2,748.6 1422.1,750.1 1420,751.6 1419.2,748.3 	"/>
</g>
<g>
	<g>
		<path class="st17" d="M1089.7,561.9l-6.5-6c-1.4-1.3-1.5-3.6-0.2-5l47.4-51.4l11.7,10.8l-47.4,51.4
			C1093.4,563.1,1091.1,563.2,1089.7,561.9z"/>
		<polyline class="st18" points="1166.5,489.5 1170.3,493 1144.5,521 		"/>
		<path class="st19" d="M1142,510.2l-11.3-10.4c-1.5-1.4-1.6-3.8-0.2-5.3l21.2-23c1.4-1.5,3.8-1.6,5.3-0.2l11.3,10.4
			c1.5,1.4,1.6,3.8,0.2,5.3l-21.2,23C1145.9,511.5,1143.5,511.6,1142,510.2z"/>
	</g>
	
		<rect x="1122" y="508.3" transform="matrix(0.6776 -0.7354 0.7354 0.6776 -16.7352 994.3303)" class="st19" width="7.5" height="15.9"/>
</g>
<path class="st20" d="M2092,609.8h-31.9c0-32.8-25.7-59.6-58-61.3c-8.8-13.1-22.3-22.9-38.1-26.8c-15.8-35.3-51.2-59.9-92.4-59.9
	c-40,0-74.5,23.2-91,56.9c-0.8,0-1.5-0.1-2.3-0.1c-34.1,0-61.7,27.6-61.7,61.7c0,10.7,2.7,20.7,7.5,29.5h-103"/>
<path class="st20" d="M750.1,911.6c0-10-7.8-18.1-17.7-18.7c-2.7-4-6.8-7-11.6-8.2c-4.8-10.8-15.6-18.2-28.1-18.2
	c-12.2,0-22.7,7.1-27.7,17.3c-0.2,0-0.5,0-0.7,0c-10.4,0-18.8,8.4-18.8,18.8c0,3.3,0.8,6.3,2.3,9"/>
<g>
	<path class="st21" d="M1055.1,762.8l-3.2,5.9c-0.1,0.2-0.3,0.4-0.5,0.5l-5.9,3.2c-0.9,0.5-0.9,1.8,0,2.3l5.9,3.2
		c0.2,0.1,0.4,0.3,0.5,0.5l3.2,5.9c0.5,0.9,1.8,0.9,2.3,0l3.2-5.9c0.1-0.2,0.3-0.4,0.5-0.5l5.9-3.2c0.9-0.5,0.9-1.8,0-2.3l-5.9-3.2
		c-0.2-0.1-0.4-0.3-0.5-0.5l-3.2-5.9C1056.9,761.9,1055.6,761.9,1055.1,762.8z"/>
	<path class="st21" d="M1394.8,808.2l-3.2,5.9c-0.1,0.2-0.3,0.4-0.5,0.5l-5.9,3.2c-0.9,0.5-0.9,1.8,0,2.3l5.9,3.2
		c0.2,0.1,0.4,0.3,0.5,0.5l3.2,5.9c0.5,0.9,1.8,0.9,2.3,0l3.2-5.9c0.1-0.2,0.3-0.4,0.5-0.5l5.9-3.2c0.9-0.5,0.9-1.8,0-2.3l-5.9-3.2
		c-0.2-0.1-0.4-0.3-0.5-0.5l-3.2-5.9C1396.7,807.3,1395.3,807.3,1394.8,808.2z"/>
	<path class="st21" d="M1452.5,942.8l-3.2,5.9c-0.1,0.2-0.3,0.4-0.5,0.5l-5.9,3.2c-0.9,0.5-0.9,1.8,0,2.3l5.9,3.2
		c0.2,0.1,0.4,0.3,0.5,0.5l3.2,5.9c0.5,0.9,1.8,0.9,2.3,0l3.2-5.9c0.1-0.2,0.3-0.4,0.5-0.5l5.9-3.2c0.9-0.5,0.9-1.8,0-2.3l-5.9-3.2
		c-0.2-0.1-0.4-0.3-0.5-0.5l-3.2-5.9C1454.3,941.9,1453,941.9,1452.5,942.8z"/>
	<path class="st21" d="M2004.6,888.2l-3.2,5.9c-0.1,0.2-0.3,0.4-0.5,0.5l-5.9,3.2c-0.9,0.5-0.9,1.8,0,2.3l5.9,3.2
		c0.2,0.1,0.4,0.3,0.5,0.5l3.2,5.9c0.5,0.9,1.8,0.9,2.3,0l3.2-5.9c0.1-0.2,0.3-0.4,0.5-0.5l5.9-3.2c0.9-0.5,0.9-1.8,0-2.3l-5.9-3.2
		c-0.2-0.1-0.4-0.3-0.5-0.5l-3.2-5.9C2006.4,887.3,2005.1,887.3,2004.6,888.2z"/>
	<path class="st21" d="M1011.4,269.8l-3.2,5.9c-0.1,0.2-0.3,0.4-0.5,0.5l-5.9,3.2c-0.9,0.5-0.9,1.8,0,2.3l5.9,3.2
		c0.2,0.1,0.4,0.3,0.5,0.5l3.2,5.9c0.5,0.9,1.8,0.9,2.3,0l3.2-5.9c0.1-0.2,0.3-0.4,0.5-0.5l5.9-3.2c0.9-0.5,0.9-1.8,0-2.3l-5.9-3.2
		c-0.2-0.1-0.4-0.3-0.5-0.5l-3.2-5.9C1013.2,268.9,1011.9,268.9,1011.4,269.8z"/>
	<path class="st21" d="M627.2,441.7l-3.2,5.9c-0.1,0.2-0.3,0.4-0.5,0.5l-5.9,3.2c-0.9,0.5-0.9,1.8,0,2.3l5.9,3.2
		c0.2,0.1,0.4,0.3,0.5,0.5l3.2,5.9c0.5,0.9,1.8,0.9,2.3,0l3.2-5.9c0.1-0.2,0.3-0.4,0.5-0.5l5.9-3.2c0.9-0.5,0.9-1.8,0-2.3l-5.9-3.2
		c-0.2-0.1-0.4-0.3-0.5-0.5l-3.2-5.9C629,440.8,627.7,440.8,627.2,441.7z"/>
	<path class="st21" d="M1658.1,1012.3l-3.2,5.9c-0.1,0.2-0.3,0.4-0.5,0.5l-5.9,3.2c-0.9,0.5-0.9,1.8,0,2.3l5.9,3.2
		c0.2,0.1,0.4,0.3,0.5,0.5l3.2,5.9c0.5,0.9,1.8,0.9,2.3,0l3.2-5.9c0.1-0.2,0.3-0.4,0.5-0.5l5.9-3.2c0.9-0.5,0.9-1.8,0-2.3l-5.9-3.2
		c-0.2-0.1-0.4-0.3-0.5-0.5l-3.2-5.9C1659.9,1011.3,1658.6,1011.3,1658.1,1012.3z"/>
	<path class="st21" d="M1746.3,708.9l-3.2,5.9c-0.1,0.2-0.3,0.4-0.5,0.5l-5.9,3.2c-0.9,0.5-0.9,1.8,0,2.3l5.9,3.2
		c0.2,0.1,0.4,0.3,0.5,0.5l3.2,5.9c0.5,0.9,1.8,0.9,2.3,0l3.2-5.9c0.1-0.2,0.3-0.4,0.5-0.5l5.9-3.2c0.9-0.5,0.9-1.8,0-2.3l-5.9-3.2
		c-0.2-0.1-0.4-0.3-0.5-0.5l-3.2-5.9C1748.1,707.9,1746.8,707.9,1746.3,708.9z"/>
	<path class="st21" d="M1479.2,631.7l-3.2,5.9c-0.1,0.2-0.3,0.4-0.5,0.5l-5.9,3.2c-0.9,0.5-0.9,1.8,0,2.3l5.9,3.2
		c0.2,0.1,0.4,0.3,0.5,0.5l3.2,5.9c0.5,0.9,1.8,0.9,2.3,0l3.2-5.9c0.1-0.2,0.3-0.4,0.5-0.5l5.9-3.2c0.9-0.5,0.9-1.8,0-2.3l-5.9-3.2
		c-0.2-0.1-0.4-0.3-0.5-0.5l-3.2-5.9C1481,630.8,1479.7,630.8,1479.2,631.7z"/>
	<path class="st21" d="M1523.2,412.5l-3.2,5.9c-0.1,0.2-0.3,0.4-0.5,0.5l-5.9,3.2c-0.9,0.5-0.9,1.8,0,2.3l5.9,3.2
		c0.2,0.1,0.4,0.3,0.5,0.5l3.2,5.9c0.5,0.9,1.8,0.9,2.3,0l3.2-5.9c0.1-0.2,0.3-0.4,0.5-0.5l5.9-3.2c0.9-0.5,0.9-1.8,0-2.3l-5.9-3.2
		c-0.2-0.1-0.4-0.3-0.5-0.5l-3.2-5.9C1525,411.5,1523.7,411.5,1523.2,412.5z"/>
	<path class="st21" d="M1184.7,396.4l-3.2,5.9c-0.1,0.2-0.3,0.4-0.5,0.5l-5.9,3.2c-0.9,0.5-0.9,1.8,0,2.3l5.9,3.2
		c0.2,0.1,0.4,0.3,0.5,0.5l3.2,5.9c0.5,0.9,1.8,0.9,2.3,0l3.2-5.9c0.1-0.2,0.3-0.4,0.5-0.5l5.9-3.2c0.9-0.5,0.9-1.8,0-2.3l-5.9-3.2
		c-0.2-0.1-0.4-0.3-0.5-0.5l-3.2-5.9C1186.5,395.4,1185.2,395.4,1184.7,396.4z"/>
	<path class="st21" d="M824.2,728.7l-3.2,5.9c-0.1,0.2-0.3,0.4-0.5,0.5l-5.9,3.2c-0.9,0.5-0.9,1.8,0,2.3l5.9,3.2
		c0.2,0.1,0.4,0.3,0.5,0.5l3.2,5.9c0.5,0.9,1.8,0.9,2.3,0l3.2-5.9c0.1-0.2,0.3-0.4,0.5-0.5l5.9-3.2c0.9-0.5,0.9-1.8,0-2.3l-5.9-3.2
		c-0.2-0.1-0.4-0.3-0.5-0.5l-3.2-5.9C826,727.8,824.7,727.8,824.2,728.7z"/>
	<path class="st21" d="M592.6,960.8l-3.2,5.9c-0.1,0.2-0.3,0.4-0.5,0.5l-5.9,3.2c-0.9,0.5-0.9,1.8,0,2.3l5.9,3.2
		c0.2,0.1,0.4,0.3,0.5,0.5l3.2,5.9c0.5,0.9,1.8,0.9,2.3,0l3.2-5.9c0.1-0.2,0.3-0.4,0.5-0.5l5.9-3.2c0.9-0.5,0.9-1.8,0-2.3l-5.9-3.2
		c-0.2-0.1-0.4-0.3-0.5-0.5l-3.2-5.9C594.4,959.9,593.1,959.9,592.6,960.8z"/>
	<path class="st21" d="M604.1,680.3l-3.2,5.9c-0.1,0.2-0.3,0.4-0.5,0.5l-5.9,3.2c-0.9,0.5-0.9,1.8,0,2.3l5.9,3.2
		c0.2,0.1,0.4,0.3,0.5,0.5l3.2,5.9c0.5,0.9,1.8,0.9,2.3,0l3.2-5.9c0.1-0.2,0.3-0.4,0.5-0.5l5.9-3.2c0.9-0.5,0.9-1.8,0-2.3l-5.9-3.2
		c-0.2-0.1-0.4-0.3-0.5-0.5l-3.2-5.9C605.9,679.3,604.6,679.3,604.1,680.3z"/>
	<path class="st21" d="M1844.7,835.9l-3.2,5.9c-0.1,0.2-0.3,0.4-0.5,0.5l-5.9,3.2c-0.9,0.5-0.9,1.8,0,2.3l5.9,3.2
		c0.2,0.1,0.4,0.3,0.5,0.5l3.2,5.9c0.5,0.9,1.8,0.9,2.3,0l3.2-5.9c0.1-0.2,0.3-0.4,0.5-0.5l5.9-3.2c0.9-0.5,0.9-1.8,0-2.3l-5.9-3.2
		c-0.2-0.1-0.4-0.3-0.5-0.5l-3.2-5.9C1846.6,835,1845.2,835,1844.7,835.9z"/>
	<path class="st21" d="M900.8,987.1l-3.2,5.9c-0.1,0.2-0.3,0.4-0.5,0.5l-5.9,3.2c-0.9,0.5-0.9,1.8,0,2.3l5.9,3.2
		c0.2,0.1,0.4,0.3,0.5,0.5l3.2,5.9c0.5,0.9,1.8,0.9,2.3,0l3.2-5.9c0.1-0.2,0.3-0.4,0.5-0.5l5.9-3.2c0.9-0.5,0.9-1.8,0-2.3l-5.9-3.2
		c-0.2-0.1-0.4-0.3-0.5-0.5l-3.2-5.9C902.7,986.1,901.3,986.1,900.8,987.1z"/>
	<path class="st21" d="M295.8,730.8l-3.2,5.9c-0.1,0.2-0.3,0.4-0.5,0.5l-5.9,3.2c-0.9,0.5-0.9,1.8,0,2.3l5.9,3.2
		c0.2,0.1,0.4,0.3,0.5,0.5l3.2,5.9c0.5,0.9,1.8,0.9,2.3,0l3.2-5.9c0.1-0.2,0.3-0.4,0.5-0.5l5.9-3.2c0.9-0.5,0.9-1.8,0-2.3l-5.9-3.2
		c-0.2-0.1-0.4-0.3-0.5-0.5l-3.2-5.9C297.6,729.9,296.3,729.9,295.8,730.8z"/>
	<path class="st21" d="M1060.2,601.6l-3.2,5.9c-0.1,0.2-0.3,0.4-0.5,0.5l-5.9,3.2c-0.9,0.5-0.9,1.8,0,2.3l5.9,3.2
		c0.2,0.1,0.4,0.3,0.5,0.5l3.2,5.9c0.5,0.9,1.8,0.9,2.3,0l3.2-5.9c0.1-0.2,0.3-0.4,0.5-0.5l5.9-3.2c0.9-0.5,0.9-1.8,0-2.3l-5.9-3.2
		c-0.2-0.1-0.4-0.3-0.5-0.5l-3.2-5.9C1062.1,600.7,1060.7,600.7,1060.2,601.6z"/>
</g>
<path class="st20" d="M902,848.7H801.9c-4.9-14-18.2-24.1-33.9-24.1c-1.9,0-3.7,0.1-5.5,0.4c-6.1-15.1-20.9-25.7-38.2-25.7
	c-4.6,0-9,0.8-13.1,2.2c-9.8-9.3-23.1-15-37.7-15c-22.8,0-42.3,13.9-50.6,33.6c-3.2-0.9-6.5-1.4-9.9-1.4c-17.9,0-32.8,13-35.8,30
	H540"/>
<path class="st20" d="M564.6,427.9h-44.7c-5.5-6.1-12.4-10.9-20.3-13.7c-1.1-24.1-21-43.3-45.4-43.3c-12,0-22.9,4.7-31,12.3
	c-7-6.7-16.5-10.9-27-10.9c-0.8,0-1.6,0-2.4,0.1c-7.9-7-18.2-11.2-29.5-11.2c-17.8,0-33.2,10.4-40.3,25.5c-7.5-4.8-16.4-7.5-26-7.5
	c-26.9,0-48.7,21.8-48.7,48.7h-70.5"/>
<path class="st22" d="M423.2,383.2"/>
<path class="st20" d="M517.7,480.7c-4.4-10.5-14.7-17.8-26.7-17.8c-2.7,0-5.3,0.4-7.8,1.1c0-0.4,0.1-0.7,0.1-1.1
	c0-15.3-12.4-27.7-27.7-27.7c-10,0-18.7,5.3-23.6,13.2c-5.8-3.1-12.3-4.9-19.4-4.9c-21.3,0-38.8,16.4-40.5,37.2"/>
<path class="st20" d="M1963,614.2c-3.5-8.4-11.8-14.3-21.5-14.3c-2.2,0-4.3,0.3-6.3,0.9c0-0.3,0-0.6,0-0.9c0-12.3-10-22.3-22.3-22.3
	c-8,0-15.1,4.3-19,10.6c-4.6-2.5-9.9-3.9-15.5-3.9c-17.1,0-31.1,13.2-32.6,29.9"/>
<line class="st23" x1="1992.9" y1="1062.7" x2="498.7" y2="1062.7"/>
<circle class="st24" cx="481.7" cy="657.6" r="33.7"/>
<circle class="st25" cx="778.3" cy="334.5" r="84.2"/>
<circle class="st24" cx="2027.6" cy="827.7" r="93.7"/>
<circle class="st26" cx="1595.7" cy="888.1" r="52"/>
<circle class="st26" cx="1647.7" cy="404.9" r="33.8"/>
<g>
	<g>
		<path class="st27" d="M1359.6,525.1l3.6,0.5c1.3,8.4,3.5,14.1,6.5,16.9c5.7,5.4,12.9,6.6,23,8.4l0.8,0.1c0,0,1,0.2,2.5,0.4
			c8.3,1.1,18.9,1.7,22.8-1.7c4.7-4.2,9-11.6,10.8-19c0-0.1,0.7-3.2,5.6-2.6c4.8,0.6,4.8,3.6,4.7,4c-0.2,7.5,1.9,15.8,5.3,21.1
			c2.8,4.4,13.3,6.6,21.5,7.7c1.6,0.2,2.5,0.3,2.5,0.3l0.8,0.1c10.1,1,17.5,1.7,24.4-1.9c3.7-1.9,7.3-6.8,10.8-14.6l3.9,0.5
			c1.8,0.2,3.5-0.9,3.9-2.6l0.7-2.7c0.2-0.7,0-1.5-0.3-2.1c0.2-0.5,0.2-1.1-0.2-1.5c-3.1-3.8-30.4-36.9-38.7-38.1
			c-8.2-0.9-23.2,11.2-23.8,11.8c-0.4,0.3-0.6,0.8-0.5,1.2l0.3,2.6c0.2,1.7,1.2,2.5,2.2,2.6c0.6,0.1,1.5,0,2.5-0.9
			c8.1-6.9,14.7-10.9,17.3-10.6c2.8,0.4,14.2,12.4,24.3,23.8c-5.1-1.3-12.1-2.5-20.9-3.7c-13-1.8-27-3-34.2-3.6
			c-3.1-0.3-8-0.9-11.1-1.5c-7.1-1.3-20.9-3.8-33.9-5.6c-8.3-1.1-15.1-1.8-20.2-2c12.7-8.3,26.9-16.8,29.7-16.4
			c2.6,0.3,7.9,6,13.8,14.8c0.8,1.1,1.6,1.5,2.2,1.6c0.9,0.1,2.2-0.3,2.8-1.9l1-2.5c0.2-0.4,0.1-0.9-0.2-1.3
			c-0.5-0.7-11.6-16.3-20-17.7c-8.2-1.1-43.4,23.6-47.3,26.4c-0.3,0.2-0.4,0.5-0.5,0.8c-0.1,0.1-0.2,0.1-0.3,0.2
			c-0.7,0.6-1.1,1.4-1.1,2.3l-0.1,2.8C1356.5,523.3,1357.8,524.8,1359.6,525.1z M1446.7,529.4c1.3-1.2,4.3-1,7.1-0.6l1.2,0.2
			c0,0,12,1.5,19.9,2.7c0.2,0,18.8,2.9,22.4,3.8c2,0.5,3.2,1.2,3.7,2.1c0.3,0.6,0.4,1.3,0.1,2.2c-0.5,1.7-5,17-16.7,17.4
			c-3.7,0.1-7.9-0.1-12.7-0.8l-3.2-0.4c-4.8-0.7-9-1.5-12.4-2.6c-10.1-3.2-10.2-15.4-10.2-20c0-0.5,0-0.9,0-1.2
			C1445.8,530.8,1446,529.9,1446.7,529.4z M1369.3,519.7c0.7-0.7,2.1-1,4.1-1c3.7,0,22.4,2.3,22.6,2.3c3,0.3,6.5,0.8,9.8,1.2
			c5.5,0.7,10.1,1.4,10.2,1.4l1.2,0.2c2.8,0.4,5.8,1,6.7,2.4c0.4,0.7,0.5,1.6,0,2.9c-0.1,0.3-0.2,0.7-0.3,1.1
			c-1.3,4.4-4.7,16.2-15.2,16.6c-3.6,0.1-7.8-0.1-12.7-0.8l-3.2-0.4c-4.8-0.7-9-1.5-12.4-2.6c-11.2-3.5-11.5-19.4-11.5-21.2
			C1368.6,520.9,1368.9,520.2,1369.3,519.7z"/>
	</g>
</g>
<g>
	<g>
		<g>
			<polyline class="st28" points="1200.5,933.1 1200.5,882 1284.5,882 1284.5,933.1 			"/>
			<path class="st29" d="M1282.1,922.4l-15.1,2c-16.2,2.1-32.8,2.1-49,0l-15.1-2v-29.9h79.2V922.4z"/>
			<g>
				<path class="st28" d="M1048.3,784.5"/>
				<path class="st28" d="M1242.5,909.2L1242.5,909.2c-64.5,0-117.7-50.7-121.7-114.2c-0.1-1.1-0.1-11.2-0.2-22.4
					c-0.1-15.3-0.1-32.7-0.1-32.7c0-9.3,1.1-18.4,3.1-27.2c0.4-2,0.9-3.9,1.5-5.8c14.5-51.2,61.8-89,117.4-89l0,0
					c67.1,0,122,54.9,122,122v47.3C1364.5,854.3,1309.6,909.2,1242.5,909.2z"/>
				<path class="st29" d="M1356.1,704c0,0-28.9-58.4-114.7-31.7c0,0-72.1-21.3-114.7,28.7c0,0,38-90.6,115.9-83.1
					C1242.5,617.9,1333.2,622.2,1356.1,704z"/>
				<path class="st30" d="M1271.7,822.5c0,13.4-13.1,24.3-29.2,24.3s-29.2-10.9-29.2-24.3"/>
				<path class="st31" d="M1230.5,788.4c0-9.4,5.4-15.1,12-14.7c6.9,0.4,12.3,5.8,12,14.7"/>
				<g>
					<path class="st32" d="M1194.1,737.8c1.9,2.1,1.9,5.4,0,7.5s-4.9,2.1-6.8,0s-1.9-5.4,0-7.5
						C1189.1,735.8,1192.2,735.8,1194.1,737.8z"/>
					<path class="st31" d="M1183.3,748.5c0-8.3,5-12.5,11.2-12.5s11.2,4.2,11.2,12.5"/>
				</g>
				<g>
					<path class="st32" d="M1289.3,737.8c1.9,2.1,1.9,5.4,0,7.5s-4.9,2.1-6.8,0s-1.9-5.4,0-7.5
						C1284.4,735.8,1287.4,735.8,1289.3,737.8z"/>
					<path class="st31" d="M1278.6,748.5c0-8.3,5-12.5,11.2-12.5s11.2,4.2,11.2,12.5"/>
				</g>
				<path class="st33" d="M1224.5,612.4"/>
				<path class="st34" d="M1377.8,675.6c0,0-92.2-32.9-135.3-3.2c0,0-41-31.3-103.5,1.2c0,0-6.6-55.2,48.8-67.5
					c0,0,41.7-15.1,56.1-31.3c0,0,10,14.8,0.6,28.2c0,0,22.5-10.6,44.3-6.4c21.9,4.2,38.7-13.4,38.7-13.4s1,21.9-12.6,30.4
					C1315,613.5,1373.1,634.6,1377.8,675.6z"/>
				<path class="st31" d="M1365.6,752.7"/>
				<path class="st31" d="M1347.4,673.5"/>
				<path class="st35" d="M1347.4,673.5"/>
				<path class="st35" d="M1137.8,673.5"/>
				<path class="st34" d="M1342.6,668.8c-1.5-1.8,23.2-3.8,29.6,28.5c5.8,29.7-6.2,40.4-6.2,40.4S1360,690.7,1342.6,668.8z"/>
				<path class="st34" d="M1139.9,674.8c0,0-21.6-5.7-25.7,24.3c-4.2,30,6.2,40.5,6.2,40.5S1126.9,700.4,1139.9,674.8z"/>
				<g>
					<path class="st31" d="M1171.3,711.3c2.7-3.8,6.9-7.1,11.4-9.1c4.3-1.9,9.4-2.7,14.4-1.8"/>
					<path class="st31" d="M1287.2,699.8c4.6-0.5,9.8,0.5,14.3,2.5c4.3,2,8.3,5.3,10.8,9.7"/>
				</g>
				<path class="st36" d="M1120.6,781.6"/>
				<path class="st37" d="M1141.8,667.3c-0.5-26,17.3-53,44-58.1c0,0,25.3-5,56.7-28.7c-0.5,0.4-0.4,5.2-0.5,5.9
					c-0.7,5-2.2,9.9-4.2,14.5c-7.4,17-20.8,28.1-38.9,31.9C1175.2,637.7,1154.4,644.9,1141.8,667.3L1141.8,667.3z"/>
				<path class="st38" d="M1242.5,668.8c0,0,13.6-6.7,36.2-9.4c23.7-2.8,57.4-1.4,95.6,11.8c0,0-58.4-47.4-105.8-25
					C1268.5,646.2,1247,656.7,1242.5,668.8z"/>
				<path class="st38" d="M1258.4,601.4"/>
				<path class="st37" d="M1323.9,588.4"/>
				<path class="st39" d="M1283.4,629.2c5.4-1.2,11.2-2.2,17.6-2.7"/>
				<path class="st39" d="M1232.1,661.7c0,0,11.2-19.4,41.3-29.6"/>
				<path class="st40" d="M1210.7,655.5c0,0,3.9-10.3,17.1-13.8"/>
				<path class="st29" d="M1133.5,838.6c0,0,30.7,68.3,110.5,68.3s106.6-68.9,110.2-79.5C1355.4,825.5,1261.7,971.6,1133.5,838.6z"
					/>
				<path class="st37" d="M1130.4,681.6c0,0-9.3,2-11.4,19.5C1119,701,1130.9,687.8,1130.4,681.6z"/>
				<path class="st38" d="M1349.9,670.9c0,0,20,13.4,20.9,33.4c0,0-1.3,11.7-6,16.1C1364.9,720.4,1360.2,694.6,1349.9,670.9z"/>
			</g>
			<g id="XMLID_1_">
				<g>
					<path class="st41" d="M1418.5,1062.7h-145.3h-60.9H1067c0-28.7,9.5-55.3,25.6-76.8l2.3,1.7h117.5l0.4-1
						c9.1,3.5,19.4,5.2,30,5.2c26.5,0,49.1-9.1,58.2-31.1l2.1,0.5h61.7l1-2.3c5,3.7,9.8,7.8,14.3,12.2
						C1403.7,994.5,1418.5,1026.9,1418.5,1062.7z"/>
					<path class="st41" d="M1365.7,958.9l-1,2.3H1303l-2.1-0.5c2.8-6.7,4.3-14.7,4.3-23.9l0.3-2.5
						C1327.8,937.4,1348.4,946,1365.7,958.9z"/>
					<path class="st42" d="M1305.5,934.3l-0.3,2.5c0,9.2-1.5,17.2-4.3,23.9c-9.2,22-31.8,31.1-58.2,31.1c-10.6,0-20.9-1.7-30-5.2
						c-13.1-5-23.8-13.8-29.9-26.6c-3.4-7.2-5.3-15.6-5.3-25.4c6.6-1,13.4-1.6,20.3-1.6l2.9,2.7c1.5,21.4,21,38.4,42.7,38.4
						c21.6,0,39.3-16.6,41-37.8l3.5-3.3C1293.8,933.1,1299.7,933.5,1305.5,934.3z"/>
					<path class="st43" d="M1200.5,933.1h83.9c0,1.1,0,2.2-0.1,3.3l-4.7,4.5c-20.7,19.5-52.9,19.5-73.6,0l-5.4-5
						C1200.5,934.9,1200.5,934,1200.5,933.1z"/>
					<path class="st43" d="M1279.5,940.9l4.7-4.5c-1.7,21.1-19.4,37.8-41,37.8c-21.8,0-41.2-16.9-42.7-38.4l5.4,5
						C1226.6,960.3,1258.9,960.3,1279.5,940.9z"/>
					<path class="st41" d="M1212.7,986.7l-0.4,1h-117.5l-2.3-1.7c7.7-10.3,16.9-19.4,27.2-27.1l1.6,2.3h58.8l2.6-1.1
						C1188.8,972.9,1199.6,981.6,1212.7,986.7z"/>
					<path class="st41" d="M1182.8,960.1l-2.6,1.1h-58.8l-1.6-2.3c16.7-12.3,36.4-20.8,57.7-24.2
						C1177.5,944.5,1179.4,952.9,1182.8,960.1z"/>
				</g>
				<g>
					<line class="st44" x1="1094.8" y1="987.6" x2="1212.3" y2="987.6"/>
					<path class="st31" d="M1284.4,933.1c0,1.1,0,2.2-0.1,3.3c-1.7,21.1-19.4,37.8-41,37.8c-21.8,0-41.2-16.9-42.7-38.4
						c-0.1-0.9-0.1-1.8-0.1-2.7"/>
					<line class="st44" x1="1121.4" y1="961.2" x2="1180.2" y2="961.2"/>
					<line class="st44" x1="1303" y1="961.2" x2="1364.7" y2="961.2"/>
					<line class="st44" x1="1272.5" y1="987.6" x2="1389.1" y2="987.6"/>
					<line class="st44" x1="1081.6" y1="1011.5" x2="1404.5" y2="1015"/>
					<line class="st44" x1="1072.1" y1="1036.2" x2="1411.7" y2="1039.7"/>
					<path class="st31" d="M1305.2,936.8c0,9.2-1.5,17.2-4.3,23.9c-9.2,22-31.8,31.1-58.2,31.1c-10.6,0-20.9-1.7-30-5.2
						c-13.1-5-23.8-13.8-29.9-26.6c-3.4-7.2-5.3-15.6-5.3-25.4c0-0.1,0-0.2,0-0.2"/>
					<path class="st45" d="M1200.6,935.8l-2.9-2.7c-6.9,0-13.7,0.5-20.3,1.6c-21.3,3.3-41,11.8-57.7,24.2
						c-10.3,7.7-19.5,16.8-27.2,27.1c-16,21.5-25.6,48-25.6,76.8h145.3h60.9h145.3c0-35.8-14.8-68.2-38.5-91.6
						c-4.5-4.4-9.2-8.5-14.3-12.2c-17.3-12.8-37.9-21.5-60.2-24.5c-5.8-0.8-11.7-1.2-17.8-1.2l-3.5,3.3"/>
				</g>
			</g>
			<path class="st46" d="M1119.9,974.2"/>
			<line class="st47" x1="1165.8" y1="975.3" x2="1176.5" y2="975.3"/>
			<line class="st47" x1="1119.9" y1="975.3" x2="1153.6" y2="975.3"/>
			<line class="st47" x1="1209.2" y1="1024.7" x2="1219.8" y2="1024.7"/>
			<line class="st47" x1="1232.5" y1="1024.7" x2="1266.1" y2="1024.7"/>
			<path class="st42" d="M1334.9,1045.6"/>
			<g>
				<line class="st48" x1="1302.7" y1="1023.7" x2="1302.7" y2="1008.7"/>
				<polyline class="st49" points="1293.6,1021.1 1293.6,1027.3 1299.9,1027.3 1299.9,1021.1 1299.9,1015.2 				"/>
				<path class="st50" d="M1298,1023.5h-3.3c-1.5,0-2.8-1.3-2.8-2.8v-11.2c0-1.5,1.3-2.8,2.8-2.8h3.3c1.5,0,2.8,1.3,2.8,2.8v11.2
					C1300.8,1022.3,1299.5,1023.5,1298,1023.5z"/>
				<g>
					<g>
						<polygon class="st51" points="1313,1015.1 1307.1,1015.1 1310.1,1010.5 						"/>
						<polygon class="st52" points="1310.1,1010.5 1310.6,1011.5 1311.2,1012.5 1310.1,1012.5 1308.9,1012.5 1309.5,1011.5 						
							"/>
						<polyline class="st52" points="1307.1,1015.1 1313,1015.1 1313,1027.3 1307.1,1027.3 						"/>
					</g>
					<g>
						<polygon class="st51" points="1320.1,1015.1 1314.2,1015.1 1317.2,1010.5 						"/>
						<polygon class="st53" points="1317.2,1010.5 1317.7,1011.5 1318.3,1012.5 1317.2,1012.5 1316,1012.5 1316.6,1011.5 						"/>
						<polyline class="st53" points="1314.2,1015.1 1320.1,1015.1 1320.1,1027.3 1314.2,1027.3 						"/>
					</g>
					<g>
						<polygon class="st51" points="1327.1,1015.1 1321.2,1015.1 1324.2,1010.5 						"/>
						<polygon class="st54" points="1324.2,1010.5 1324.8,1011.5 1325.3,1012.5 1324.2,1012.5 1323.1,1012.5 1323.6,1011.5 						
							"/>
						<polyline class="st54" points="1321.2,1015.1 1327.1,1015.1 1327.1,1027.3 1321.2,1027.3 						"/>
					</g>
				</g>
				<g>
					<path class="st55" d="M1282.1,1061.8v-32.4c0-0.6,0.5-1.2,1.1-1.2h50.8c0.6,0,1.1,0.5,1.1,1.2v32.5"/>
					<line class="st56" x1="1285" y1="1038.1" x2="1289" y2="1038.1"/>
					<line class="st56" x1="1293.2" y1="1038.1" x2="1297.2" y2="1038.1"/>
					<line class="st56" x1="1301.8" y1="1038.1" x2="1305.8" y2="1038.1"/>
					<line class="st56" x1="1310.5" y1="1038.1" x2="1314.5" y2="1038.1"/>
					<line class="st56" x1="1319.1" y1="1038.1" x2="1323.1" y2="1038.1"/>
					<line class="st56" x1="1327.7" y1="1038.1" x2="1331.7" y2="1038.1"/>
				</g>
			</g>
			<path class="st57" d="M1366,1071.7"/>
			<path class="st57" d="M1366,1016.2"/>
		</g>
		<circle class="st58" cx="1173.2" cy="805.9" r="19.3"/>
		<circle class="st58" cx="1312.3" cy="805.9" r="19.3"/>
	</g>
	<path class="st30" d="M1133.1,1024.3c0,0-9,18.4-6.3,39"/>
	<path class="st30" d="M1354.8,1024.3c0,0,9,18.4,6.3,39"/>
</g>
<g>
	<path class="st59" d="M1078.9,905l-80.1,22.8c-1.9,0.5-3.9-0.6-4.4-2.4l-25.9-90.8c-0.5-1.9,0.6-3.9,2.4-4.4l80.1-22.8
		c1.9-0.5,3.9,0.6,4.4,2.4l25.9,90.8C1081.9,902.5,1080.8,904.5,1078.9,905z"/>
	<path class="st60" d="M993.8,908l-14.3,4.1c-5.3,1.5-10.9-1.6-12.5-6.9l-9.8-34.5c-1.5-5.3,1.6-10.9,6.9-12.5l14.3-4.1
		c5.3-1.5,10.9,1.6,12.5,6.9l9.8,34.5C1002.2,900.8,999.1,906.4,993.8,908z"/>
	<path class="st61" d="M1036.4,812.5c0,0-12.7,11-7.6,20.7c5.1,9.7-0.7,18.8-0.7,18.8"/>
	<text transform="matrix(0.9617 -0.2741 0.2741 0.9617 999.0393 892.2943)" class="st49 st62 st63">THE</text>
	<path class="st8" d="M1043.1,860.1l-12.3,3.5c-3.5,1-7.2-1-8.2-4.6l-2.7-9.4c-1-3.5,1-7.2,4.6-8.2l12.3-3.5c3.5-1,7.2,1,8.2,4.6
		l2.7,9.4C1048.6,855.4,1046.6,859.1,1043.1,860.1z"/>
	<g>
		<path class="st64" d="M1035.2,843c0,0-0.8,1.4-1.9,2.2c-8.1,5.8-2.5,11.1-2.3,11.1c0,0,0.3-1,0.8-1.7c3.4-4.4,3.3-8.3,3.3-8.3
			s0.3,4.7-2.8,8.5c-0.7,0.8-0.8,2.5-0.6,4.1c0,0,0.5-0.4,0.8-0.6c-0.1-0.7-0.1-1.4,0.1-2c5.6-0.9,6.1-5.7,5.9-7.3
			C1037.9,845.1,1035.2,843,1035.2,843z"/>
	</g>
</g>
<g>
	<g>
		<path class="st65" d="M1381.2,434l-85.6-41c-2.9-1.4-4.2-4.9-2.8-7.9l50.2-104.7c1.4-2.9,4.9-4.2,7.9-2.8l85.6,41
			c2.9,1.4,4.2,4.9,2.8,7.9l-50.2,104.7C1387.7,434.2,1384.2,435.4,1381.2,434z"/>
		
			<ellipse transform="matrix(0.4319 -0.9019 0.9019 0.4319 489.2943 1406.9663)" class="st66" cx="1361.5" cy="315.1" rx="8.6" ry="8.7"/>
		<line class="st67" x1="1376.2" y1="322.1" x2="1385.1" y2="326.4"/>
		<line class="st67" x1="1392.2" y1="329.8" x2="1401.2" y2="334.1"/>
		<line class="st67" x1="1408.3" y1="337.5" x2="1417.2" y2="341.8"/>
		<line class="st67" x1="1356.3" y1="332.5" x2="1405" y2="355.8"/>
		<line class="st67" x1="1362.4" y1="345.3" x2="1389.6" y2="358.3"/>
		<path class="st68" d="M1377.3,377l-25.1-12c-2.1-1-3-3.5-2-5.6l1-2.2c1-2.1,3.5-3,5.6-2l25.1,12c2.1,1,3,3.5,2,5.6l-1,2.2
			C1381.9,377.1,1379.4,378,1377.3,377z"/>
		<line class="st67" x1="1329.6" y1="365.6" x2="1378.6" y2="389.1"/>
		<line class="st67" x1="1323" y1="379.5" x2="1357.6" y2="396.1"/>
		<line class="st67" x1="1326.3" y1="372.5" x2="1353.8" y2="385.7"/>
		<path class="st69" d="M1432.2,306.6l1.8,0.9c1.7,0.8,2.5,2.9,1.6,4.6l-3.5,7.4c-0.8,1.7-2.9,2.5-4.6,1.6l-1.8-0.9
			c-1.7-0.8-2.5-2.9-1.6-4.6l3.5-7.4C1428.4,306.5,1430.5,305.8,1432.2,306.6z"/>
		<path class="st69" d="M1420.3,300.9l1.8,0.9c1.7,0.8,2.5,2.9,1.6,4.6l-3.5,7.4c-0.8,1.7-2.9,2.5-4.6,1.6l-1.8-0.9
			c-1.7-0.8-2.5-2.9-1.6-4.6l3.5-7.4C1416.5,300.8,1418.6,300.1,1420.3,300.9z"/>
		<path class="st69" d="M1408.5,295.2l1.8,0.9c1.7,0.8,2.5,2.9,1.6,4.6l-3.5,7.4c-0.8,1.7-2.9,2.5-4.6,1.6l-1.8-0.9
			c-1.7-0.8-2.5-2.9-1.6-4.6l3.5-7.4C1404.7,295.2,1406.7,294.4,1408.5,295.2z"/>
		<path class="st69" d="M1396.6,289.6l1.8,0.9c1.7,0.8,2.5,2.9,1.6,4.6l-3.5,7.4c-0.8,1.7-2.9,2.5-4.6,1.6l-1.8-0.9
			c-1.7-0.8-2.5-2.9-1.6-4.6l3.5-7.4C1392.8,289.5,1394.8,288.7,1396.6,289.6z"/>
		<path class="st69" d="M1384.7,283.9l1.8,0.9c1.7,0.8,2.5,2.9,1.6,4.6l-3.5,7.4c-0.8,1.7-2.9,2.5-4.6,1.6l-1.8-0.9
			c-1.7-0.8-2.5-2.9-1.6-4.6l3.5-7.4C1380.9,283.8,1383,283,1384.7,283.9z"/>
		<path class="st69" d="M1372.8,278.2l1.8,0.9c1.7,0.8,2.5,2.9,1.6,4.6l-3.5,7.4c-0.8,1.7-2.9,2.5-4.6,1.6l-1.8-0.9
			c-1.7-0.8-2.5-2.9-1.6-4.6l3.5-7.4C1369,278.1,1371.1,277.4,1372.8,278.2z"/>
		<path class="st69" d="M1360.9,272.5l1.8,0.9c1.7,0.8,2.5,2.9,1.6,4.6l-3.5,7.4c-0.8,1.7-2.9,2.5-4.6,1.6l-1.8-0.9
			c-1.7-0.8-2.5-2.9-1.6-4.6l3.5-7.4C1357.1,272.4,1359.2,271.7,1360.9,272.5z"/>
		<path class="st69" d="M1302.8,385.8"/>
	</g>
	<polygon class="st70" points="1347.5,291.7 1427.4,329.6 1382.3,422.9 1303,386.9 	"/>
</g>
<line class="st71" x1="1582.4" y1="688.8" x2="1599.4" y2="700.9"/>
<line class="st71" x1="1563.8" y1="675.6" x2="1577.3" y2="685.2"/>
<line class="st72" x1="1577.4" y1="673.5" x2="1592.3" y2="683.8"/>
<line class="st73" x1="1882.4" y1="1085.3" x2="1935.3" y2="1085.3"/>
<line class="st73" x1="1724.7" y1="1085.3" x2="1856.7" y2="1085.3"/>
</svg>
